General
Complete name                            : Journey to the Center of the Earth [1959] BRRip XviD - CODY.avi
Format                                   : AVI
Format/Info                              : Audio Video Interleave
File size                                : 1.00 GiB
Duration                                 : 2h 9mn
Overall bit rate                         : 1 106 Kbps

Video
ID                                       : 0
Format                                   : MPEG-4 Visual
Format profile                           : Advanced Simple@L5
Format settings, BVOP                    : 4
Format settings, QPel                    : No
Format settings, GMC                     : No warppoints
Format settings, Matrix                  : Default (H.263)
Codec ID                                 : XVID
Codec ID/Hint                            : XviD
Duration                                 : 2h 9mn
Bit rate                                 : 969 Kbps
Width                                    : 720 pixels
Height                                   : 304 pixels
Display aspect ratio                     : 2.35:1
Frame rate                               : 23.976 fps
Color space                              : YUV
Chroma subsampling                       : 4:2:0
Bit depth                                : 8 bits
Scan type                                : Progressive
Compression mode                         : Lossy
Bits/(Pixel*Frame)                       : 0.185
Stream size                              : 897 MiB (88%)
Writing library                          : XviD 1.2.1 (UTC 2008-12-04)

Audio
ID                                       : 1
Format                                   : MPEG Audio
Format version                           : Version 1
Format profile                           : Layer 3
Codec ID                                 : 55
Codec ID/Hint                            : MP3
Duration                                 : 2h 9mn
Bit rate mode                            : Constant
Bit rate                                 : 128 Kbps
Channel(s)                               : 2 channels
Sampling rate                            : 44.1 KHz
Compression mode                         : Lossy
Stream size                              : 119 MiB (12%)
Alignment                                : Aligned on interleaves
Interleave, duration                     : 42 ms (1.00 video frame)
Writing library                          : L3.99r
Encoding settings                        : -m s -V 4 -q 2 -lowpass 17 -b 128



IMDB link:                                 http://www.imdb.com/title/tt0052948/



Subtitles included                       : Romanian



Please seed at least 1,5:1 . This way this torrent has a chance to survive !



Thanks . Enjoy !! 